<?xml version="1.0" standalone="no"?>
<!DOCTYPE svg PUBLIC "-//W3C//DTD SVG 20010904//EN"
 "http://www.w3.org/TR/2001/REC-SVG-20010904/DTD/svg10.dtd">
<svg version="1.0" xmlns="http://www.w3.org/2000/svg"
 width="1466.000000pt" height="472.000000pt" viewBox="0 0 1466.000000 472.000000"
 preserveAspectRatio="xMidYMid meet">

<g transform="translate(0.000000,472.000000) scale(0.100000,-0.100000)"
fill="#000000" stroke="none">
<path d="M1425 4083 c-213 -28 -353 -157 -384 -353 -7 -38 -11 -257 -11 -525
0 -285 -4 -474 -10 -497 -13 -47 -56 -90 -106 -107 -26 -8 -121 -15 -276 -18
l-238 -5 0 -298 0 -297 92 -7 c143 -10 716 -7 788 4 140 22 251 101 300 214
46 102 50 154 50 631 0 263 4 464 10 484 14 49 56 105 99 134 80 53 120 60
354 65 l217 4 0 289 0 289 -427 -1 c-236 -1 -441 -4 -458 -6z"/>
<path d="M11210 4074 c-181 -38 -367 -186 -448 -354 -76 -159 -72 -57 -72
-1775 l0 -1535 350 0 c193 0 350 4 350 8 0 4 -24 111 -54 238 -99 415 -157
708 -171 859 -11 117 31 195 150 280 129 92 452 222 607 244 171 24 553 34
837 22 341 -15 409 -25 586 -90 342 -126 515 -243 544 -370 17 -79 -32 -396
-144 -917 -30 -142 -55 -262 -55 -266 0 -30 195 13 310 69 165 80 290 232 346
418 17 57 19 148 21 1623 l3 1562 -1547 -1 c-1285 0 -1559 -3 -1613 -15z
m1619 -398 c164 -46 316 -127 427 -229 l55 -50 -3 -96 -3 -96 -77 -3 -78 -3 0
-124 0 -125 -617 0 -618 0 30 -24 c17 -14 64 -42 105 -64 165 -87 355 -128
550 -118 187 9 340 57 470 146 40 28 74 49 76 47 2 -2 8 -38 14 -80 10 -82 2
-155 -21 -184 -123 -158 -236 -234 -402 -270 -66 -14 -81 -15 -102 -3 -22 12
-28 12 -42 -2 -18 -18 -12 -45 12 -55 9 -3 30 1 48 10 18 8 68 23 112 32 44 9
121 36 171 60 72 35 103 57 149 106 63 69 65 60 13 -47 -58 -120 -168 -229
-296 -293 -68 -34 -187 -61 -272 -61 -237 0 -468 143 -568 351 -49 101 -76
225 -68 307 3 31 9 134 12 227 l6 170 -81 -3 -81 -4 0 106 0 105 87 65 c90 67
247 151 341 181 138 44 221 55 392 51 139 -3 180 -8 259 -30z"/>
<path d="M12305 3375 c-107 -16 -269 -49 -342 -70 -49 -14 -53 -18 -53 -45 0
-17 2 -30 4 -30 3 0 51 11 108 25 302 72 675 74 988 6 52 -12 103 -24 113 -27
16 -5 18 -1 15 28 l-3 33 -125 31 c-251 63 -495 79 -705 49z"/>
<path d="M12504 3276 c-16 -12 -20 -29 -22 -104 -4 -97 -7 -101 -69 -102 -20
0 -23 -5 -23 -40 l0 -40 74 0 c96 0 106 11 106 122 0 84 9 98 64 98 24 0 26 4
26 40 l0 40 -68 0 c-43 0 -75 -5 -88 -14z"/>
<path d="M2610 3025 l0 -1055 250 0 250 0 0 269 0 268 573 749 c315 412 585
766 601 787 l28 37 -293 0 -294 -1 -300 -384 c-165 -211 -303 -384 -307 -385
-5 0 -8 173 -8 385 l0 385 -250 0 -250 0 0 -1055z"/>
<path d="M4884 4069 c-210 -27 -325 -110 -386 -280 -22 -63 -23 -74 -28 -584
-4 -384 -8 -526 -17 -541 -22 -39 -71 -72 -123 -83 -28 -6 -150 -11 -270 -11
l-220 0 0 -305 0 -305 433 0 c466 0 493 3 595 54 58 29 127 102 153 160 47
107 51 153 52 651 2 461 2 471 24 510 36 68 96 113 183 139 42 12 101 16 262
16 l208 0 0 295 0 295 -402 -1 c-222 -1 -431 -5 -464 -10z"/>
<path d="M6323 4070 c-158 -29 -251 -131 -273 -301 -12 -96 -12 -1391 0 -1487
18 -135 79 -226 185 -274 46 -20 71 -23 310 -29 143 -4 500 -8 793 -8 l532 -1
0 260 0 260 -92 1 c-51 1 -343 5 -648 8 l-555 6 -3 128 -3 127 651 -7 650 -6
0 266 0 267 -357 0 c-197 0 -496 3 -665 7 l-308 6 0 131 0 131 387 -3 c214 -1
513 -3 666 -5 l277 -2 0 263 0 262 -433 0 c-239 0 -575 2 -748 5 -178 2 -337
0 -366 -5z"/>
<path d="M8404 4050 c-109 -35 -183 -122 -221 -261 -16 -59 -18 -127 -18 -799
0 -817 -2 -793 67 -896 26 -38 48 -57 102 -84 l69 -35 806 0 806 0 60 24 c88
35 157 109 184 196 20 63 21 91 21 446 l0 379 -522 -1 c-403 0 -517 -3 -498
-12 14 -6 122 -55 240 -109 l215 -97 0 -153 0 -153 -500 0 -500 0 0 520 0 520
783 3 782 2 0 265 0 265 -907 -1 c-869 0 -911 -1 -969 -19z"/>
<path d="M12300 1987 c0 -25 92 -202 127 -245 110 -135 217 -80 303 157 17 45
30 86 30 91 0 6 -88 10 -230 10 -184 0 -230 -3 -230 -13z"/>
<path d="M11705 1929 c-117 -43 -290 -132 -365 -187 -46 -34 -74 -64 -93 -101
-16 -29 -27 -54 -25 -56 4 -4 551 155 559 164 9 9 20 211 12 210 -5 0 -44 -13
-88 -30z"/>
<path d="M13260 1881 c0 -146 -30 -124 293 -218 155 -44 283 -80 285 -78 2 2
-6 21 -17 43 -51 100 -251 225 -493 308 l-68 23 0 -78z"/>
<path d="M350 1060 l0 -650 4995 0 4995 0 0 650 0 650 -4995 0 -4995 0 0 -650z
m763 336 c58 -24 72 -49 76 -137 l3 -79 -80 0 -81 0 -3 68 c-3 59 -5 67 -23
67 -17 0 -20 -8 -23 -49 l-3 -49 110 -106 111 -106 0 -93 c0 -89 -1 -95 -28
-122 -35 -35 -87 -50 -172 -50 -83 0 -131 14 -164 46 -25 25 -26 32 -26 125
l0 99 80 0 80 0 0 -85 c0 -67 3 -87 15 -91 27 -11 45 16 45 65 0 58 -16 81
-106 159 -109 93 -114 101 -114 191 0 90 13 114 74 142 50 23 181 26 229 5z
m2200 0 c58 -24 72 -49 76 -137 l3 -79 -80 0 -81 0 -3 68 c-3 59 -5 67 -23 67
-19 0 -20 -7 -20 -240 0 -233 1 -240 20 -240 18 0 20 8 23 88 l3 87 79 0 80 0
0 -96 c0 -92 -1 -97 -28 -124 -35 -34 -87 -50 -167 -50 -78 0 -126 14 -159 46
l-26 27 0 256 c0 289 0 288 74 322 50 23 181 26 229 5z m743 -5 c74 -34 74
-34 74 -319 l0 -254 -28 -28 c-39 -38 -100 -53 -198 -48 -98 5 -143 27 -161
78 -15 43 -17 439 -3 491 20 70 73 97 195 98 58 0 91 -5 121 -18z m467 5 c58
-24 72 -49 76 -137 l3 -79 -80 0 -81 0 -3 68 c-3 59 -5 67 -23 67 -17 0 -20
-8 -23 -49 l-3 -49 110 -106 111 -106 0 -93 c0 -89 -1 -95 -28 -122 -35 -35
-87 -50 -172 -50 -83 0 -131 14 -164 46 -25 25 -26 32 -26 125 l0 99 80 0 80
0 0 -85 c0 -67 3 -87 15 -91 27 -11 45 16 45 65 0 58 -16 81 -106 159 -109 93
-114 101 -114 191 0 90 13 114 74 142 50 23 181 26 229 5z m1550 0 c58 -24 72
-49 76 -137 l3 -79 -80 0 -81 0 -3 68 c-3 59 -5 67 -23 67 -17 0 -20 -8 -23
-49 l-3 -49 110 -106 111 -106 0 -93 c0 -89 -1 -95 -28 -122 -35 -35 -87 -50
-172 -50 -83 0 -131 14 -164 46 -25 25 -26 32 -26 125 l0 99 80 0 80 0 0 -85
c0 -67 3 -87 15 -91 27 -11 45 16 45 65 0 58 -15 80 -117 170 -46 39 -87 80
-93 91 -5 10 -10 52 -10 92 0 87 13 111 74 139 50 23 181 26 229 5z m899 4
c20 -6 48 -24 62 -41 23 -27 26 -39 26 -110 l0 -79 -80 0 -79 0 -3 73 c-3 64
-5 72 -23 72 -19 0 -20 -7 -20 -240 0 -233 1 -240 20 -240 18 0 20 8 23 73 3
67 1 72 -18 72 -17 0 -20 6 -20 45 l0 45 100 0 100 0 0 -160 0 -160 -45 0
c-29 0 -47 5 -52 15 -8 13 -14 12 -48 -5 -67 -34 -163 -24 -212 22 -23 21 -23
25 -23 284 l0 262 26 31 c14 17 40 35 57 40 44 13 164 13 209 1z m-5342 -40
l0 -40 -85 0 -85 0 0 -90 0 -90 75 0 75 0 0 -40 0 -40 -75 0 -75 0 0 -115 0
-115 85 0 85 0 0 -40 0 -40 -170 0 -170 0 0 325 0 325 170 0 170 0 0 -40z
m427 17 c48 -26 66 -68 61 -143 -4 -69 -21 -97 -73 -120 -18 -8 -23 -13 -13
-14 10 0 32 -13 50 -29 l33 -29 6 -129 c3 -70 9 -136 13 -145 7 -16 0 -18 -78
-18 -108 0 -108 1 -114 170 -4 116 -10 139 -34 140 -5 0 -8 -70 -8 -155 l0
-155 -90 0 -90 0 0 326 0 326 153 -4 c121 -3 159 -7 184 -21z m344 -179 c14
-109 27 -200 30 -202 3 -3 15 79 28 182 12 103 25 195 27 205 5 14 18 17 91
17 l86 0 -6 -27 c-3 -16 -27 -162 -53 -326 l-48 -298 -125 3 -125 3 -46 285
c-26 157 -49 302 -53 323 l-6 38 87 -3 87 -3 26 -197z m509 -123 l0 -325 -90
0 -90 0 0 325 0 325 90 0 90 0 0 -325z m740 0 l0 -325 -90 0 -90 0 0 325 0
325 90 0 90 0 0 -325z m1510 210 l36 -109 44 112 43 112 79 0 c60 0 79 -3 75
-12 -3 -7 -41 -98 -86 -201 l-81 -189 0 -124 0 -124 -84 0 -84 0 -4 138 -4
137 -61 160 c-34 88 -66 173 -72 188 l-11 28 87 -3 86 -3 37 -110z m1440 75
l0 -40 -85 0 -85 0 0 -90 0 -90 75 0 75 0 0 -40 0 -40 -75 0 -75 0 0 -115 0
-115 85 0 85 0 0 -40 0 -40 -170 0 -170 0 0 325 0 325 170 0 170 0 0 -40z
m720 -240 c0 -241 2 -281 15 -286 8 -4 22 -1 30 6 13 10 15 56 15 286 l0 274
85 0 85 0 0 -291 0 -291 -29 -27 c-37 -35 -92 -51 -172 -51 -80 0 -130 14
-169 46 l-30 26 0 294 0 294 85 0 85 0 0 -280z m667 257 c48 -26 66 -68 61
-143 -4 -69 -21 -97 -73 -120 -18 -8 -23 -13 -13 -14 10 0 32 -13 50 -29 l33
-29 6 -129 c3 -70 9 -136 13 -145 7 -16 0 -18 -78 -18 -108 0 -108 1 -114 170
-4 116 -10 139 -34 140 -5 0 -8 -70 -8 -155 l0 -155 -90 0 -90 0 0 326 0 326
153 -4 c121 -3 159 -7 184 -21z m343 -302 l0 -325 -90 0 -90 0 0 325 0 325 90
0 90 0 0 -325z m406 306 c74 -34 74 -35 74 -307 l0 -241 -25 -27 c-44 -47 -81
-56 -235 -56 l-140 0 0 325 0 325 143 0 c117 0 149 -4 183 -19z m510 -18 c3
-21 32 -167 64 -325 l57 -288 -88 0 -87 0 -12 73 c-17 107 -17 107 -55 107
l-33 0 -12 -72 c-19 -117 -10 -108 -106 -108 -46 0 -84 3 -84 8 -1 4 27 150
62 325 l63 317 112 0 112 0 7 -37z m520 18 c74 -34 74 -35 74 -307 l0 -241
-25 -27 c-44 -47 -81 -56 -235 -56 l-140 0 0 325 0 325 143 0 c117 0 149 -4
183 -19z"/>
<path d="M3915 1308 c-3 -7 -4 -117 -3 -243 3 -222 4 -230 23 -230 19 0 20 7
20 240 0 221 -1 240 -18 243 -9 2 -19 -3 -22 -10z"/>
<path d="M1900 1230 c0 -49 2 -90 4 -90 30 0 36 16 36 90 0 74 -6 90 -36 90
-2 0 -4 -40 -4 -90z"/>
<path d="M7830 1230 c0 -49 2 -90 4 -90 30 0 36 16 36 90 0 74 -6 90 -36 90
-2 0 -4 -40 -4 -90z"/>
<path d="M8590 1075 c0 -144 4 -245 9 -245 5 0 17 7 25 16 14 13 16 48 16 229
0 181 -2 216 -16 229 -8 9 -20 16 -25 16 -5 0 -9 -101 -9 -245z"/>
<path d="M9117 1121 c-11 -100 -10 -111 13 -111 21 0 21 15 1 135 -7 39 -7 39
-14 -24z"/>
<path d="M9620 1075 c0 -144 4 -245 9 -245 5 0 17 7 25 16 14 13 16 48 16 229
0 181 -2 216 -16 229 -8 9 -20 16 -25 16 -5 0 -9 -101 -9 -245z"/>
<path d="M12434 1620 c-69 -27 -144 -94 -144 -127 0 -13 45 -203 101 -421 131
-513 135 -530 142 -512 18 46 219 824 232 901 6 33 3 42 -29 76 -78 87 -204
122 -302 83z"/>
<path d="M11460 1296 l0 -53 144 -52 c79 -28 150 -51 158 -51 7 0 79 25 160
57 l148 58 0 48 0 47 -305 0 -305 0 0 -54z m339 -75 c23 -42 -46 -71 -72 -29
-8 12 -7 21 2 32 18 22 58 20 70 -3z"/>
<path d="M12910 1296 l0 -54 143 -51 c78 -28 149 -51 157 -51 8 0 79 25 157
56 l143 56 0 49 0 49 -300 0 -300 0 0 -54z m335 -91 c0 -26 -3 -30 -29 -30
-36 0 -56 26 -36 50 8 9 24 15 39 13 22 -2 26 -8 26 -33z"/>
</g>
</svg>
